Coordinates
version=1
nRows=11
nColumns=63
inDegrees=yes

Units are S.I. units (second, meters, Newtons, ...)
If the header above contains a line with 'inDegrees', this indicates whether rotational values are in degrees (yes) or radians (no).

endheader
time	pelvis_tilt	pelvis_list	pelvis_rotation	pelvis_tx	pelvis_ty	pelvis_tz	hip_flexion_r	hip_adduction_r	hip_rotation_r	knee_angle_r	knee_angle_r_beta	ankle_angle_r	subtalar_angle_r	mtp_angle_r	hip_flexion_l	hip_adduction_l	hip_rotation_l	knee_angle_l	knee_angle_l_beta	ankle_angle_l	subtalar_angle_l	mtp_angle_l	L5_S1_Flex_Ext	L5_S1_Lat_Bending	L5_S1_axial_rotation	L4_L5_Flex_Ext	L4_L5_Lat_Bending	L4_L5_axial_rotation	L3_L4_Flex_Ext	L3_L4_Lat_Bending	L3_L4_axial_rotation	L2_L3_Flex_Ext	L2_L3_Lat_Bending	L2_L3_axial_rotation	L1_L2_Flex_Ext	L1_L2_Lat_Bending	L1_L2_axial_rotation	L1_T12_Flex_Ext	L1_T12_Lat_Bending	L1_T12_axial_rotation	Abs_r3	Abs_r2	Abs_r1	Abs_t1	Abs_t2	neck_flexion	neck_bending	neck_rotation	arm_flex_r	arm_add_r	arm_rot_r	elbow_flex_r	pro_sup_r	wrist_flex_r	wrist_dev_r	arm_flex_l	arm_add_l	arm_rot_l	elbow_flex_l	pro_sup_l	wrist_flex_l	wrist_dev_l
      4.16666667	      0.91354450	      0.91935578	     86.94820150	      0.16580225	      0.81818568	      0.74985495	      1.26089164	      0.55215869	    -14.53097965	     14.67870253	      0.25619169	     28.25282931	     18.02323401	      0.00000000	     -2.20918021	     -1.72979424	     -8.80368377	     10.31029704	      0.17994863	     22.79755066	     -2.96345507	      0.00000000	     -0.23155749	     -0.09441941	     -1.94397332	     -0.43002542	     -0.12557782	     -2.06547165	     -0.38042580	     -0.22957137	     -2.06547165	     -0.26464706	     -0.22957137	     -1.70097665	     -0.21502429	     -0.19254007	     -1.57947832	     -0.13231195	     -0.14625567	     -1.45797999	     -1.65399200	     -1.06809131	    -10.81179640	      0.00000000	      0.00000000	      4.90715239	     10.75659996	    -20.93375451	      0.55260737	    -13.01166163	     24.40984454	     32.18836996	     64.76101771	    -16.02424845	     -3.56482878	      3.49465112	    -10.94127165	     88.33541122	      7.69995621	      4.20889349	     -7.97239673	    -21.08455217
      4.18333333	      0.66378468	      1.15374827	     87.07734643	      0.16636787	      0.81757905	      0.74998265	      1.09868847	      0.31019652	    -14.55765264	     14.84217958	      0.25904490	     28.74783163	     17.94553186	      0.00000000	     -2.26414422	     -1.54264718	     -8.80971490	     10.53106936	      0.18380183	     22.78554913	     -2.99330729	      0.00000000	     -0.26177487	     -0.18121570	     -1.94902784	     -0.48614211	     -0.24101688	     -2.07084208	     -0.43006993	     -0.44060785	     -2.07084208	     -0.29918250	     -0.44060785	     -1.70539936	     -0.24308414	     -0.36953505	     -1.58358512	     -0.14957816	     -0.28070312	     -1.46177088	     -1.86983171	     -2.04994824	    -10.83990812	      0.00000000	      0.00000000	      4.71516984	     11.10260965	    -21.64959183	     -0.00580344	    -13.07351734	     24.15422094	     33.68883957	     64.70531748	    -16.09000702	     -3.78055062	      3.71841921	    -11.34889940	     87.84100443	      6.99699155	      3.65446739	     -8.45943282	    -20.26367384
      4.20000000	      0.43234518	      1.20486666	     87.00804547	      0.16713166	      0.81651643	      0.74987019	      1.23337344	      0.03954433	    -14.65630664	     15.25590258	      0.26626573	     29.28722421	     18.02180762	      0.00000000	     -2.26983849	     -1.30767400	     -8.36921026	     10.57608800	      0.18458756	     22.52470103	     -3.80503062	      0.00000000	     -0.26351183	     -0.26089351	     -1.76939930	     -0.48936781	     -0.34698837	     -1.87998676	     -0.43292358	     -0.63433649	     -1.87998676	     -0.30116767	     -0.63433649	     -1.54822439	     -0.24469708	     -0.53201405	     -1.43763693	     -0.15057066	     -0.40412405	     -1.32704947	     -1.88223862	     -2.95127960	     -9.84086809	      0.00000000	      0.00000000	      5.63877421	     10.97519857	    -23.83862557	     -1.83465874	    -12.53063490	     19.86000854	     36.10529929	     64.05836841	    -15.89786833	     -2.57449317	      4.38520954	    -11.82465361	     88.17390366	      6.79316240	      3.53895650	    -10.25152417	    -18.96255674
      4.21666667	      0.16166615	      1.34486844	     87.07225170	      0.16769771	      0.81570871	      0.74956408	      1.18734604	     -0.25337596	    -14.78506622	     15.52775493	      0.27101045	     29.69962644	     18.01784657	      0.00000000	     -2.33219851	     -1.03616787	     -7.84879490	     10.73941341	      0.18743812	     22.15057390	     -4.81318187	      0.00000000	     -0.26546703	     -0.33954096	     -1.67425480	     -0.49299883	     -0.45158948	     -1.77889572	     -0.43613579	     -0.82555989	     -1.77889572	     -0.30340227	     -0.82555989	     -1.46497295	     -0.24651269	     -0.69239192	     -1.36033202	     -0.15168786	     -0.52594895	     -1.25569110	     -1.89620447	     -3.84095524	     -9.31170291	      0.00000000	      0.00000000	      6.89404958	     11.20042345	    -24.61486904	     -3.08394790	    -12.05245322	     17.19087733	     37.59982759	     63.77990073	    -15.47335047	     -2.08121116	      4.78410975	    -12.26280287	     88.74387934	      6.27765594	      3.44618547	    -11.23976097	    -18.26743647
      4.23333333	     -0.09616333	      1.50045294	     87.14294001	      0.16815327	      0.81509173	      0.74922592	      1.12627104	     -0.54667829	    -14.89570893	     15.80602491	      0.27586718	     29.99151738	     18.00162972	      0.00000000	     -2.42916639	     -0.78543974	     -7.55588327	     10.90768682	      0.19037505	     21.81059953	     -5.61475479	      0.00000000	     -0.26815214	     -0.40937562	     -1.61093174	     -0.49798535	     -0.54446958	     -1.71161497	     -0.44054716	     -0.99535589	     -1.71161497	     -0.30647108	     -0.99535589	     -1.40956527	     -0.24900608	     -0.83479877	     -1.30888204	     -0.15322213	     -0.63412284	     -1.20819880	     -1.91538394	     -4.63093892	     -8.95951904	      0.00000000	      0.00000000	      8.52126606	     11.56230698	    -24.57545807	     -3.97694609	    -11.63213403	     15.48357358	     38.52938070	     63.26188672	    -15.22643449	     -2.11234523	      4.98784614	    -12.67577198	     89.12697513	      5.78273765	      3.42560763	    -11.96980278	    -17.82779203
      4.25000000	     -0.19864150	      1.67370512	     87.17075600	      0.16817328	      0.81469417	      0.74873157	      1.02119454	     -0.69199638	    -14.91432069	     16.01999192	      0.27960161	     30.19555293	     17.93437929	      0.00000000	     -2.57516494	     -0.70755490	     -7.46342797	     11.08984831	      0.19355437	     21.67185440	     -5.88270022	      0.00000000	     -0.27245053	     -0.44857204	     -1.60323775	     -0.50596788	     -0.59660082	     -1.70344011	     -0.44760898	     -1.09065806	     -1.70344011	     -0.31138371	     -1.09065806	     -1.40283303	     -0.25299756	     -0.91472811	     -1.30263067	     -0.15567823	     -0.69483809	     -1.20242832	     -1.94608690	     -5.07433666	     -8.91672742	      0.00000000	      0.00000000	     10.05023061	     11.49072040	    -24.03697699	     -4.40784062	    -11.50439625	     14.92264300	     38.95595069	     63.07628805	    -15.04766229	     -2.42721030	      4.89025607	    -12.92809316	     89.04976686	      5.23934602	      3.33799035	    -12.34125437	    -17.52324827
      4.26666667	     -0.24657374	      1.84042291	     87.13823502	      0.16786499	      0.81445925	      0.74839419	      1.00956102	     -0.81215103	    -14.85109850	     16.33189189	      0.28504529	     30.42744213	     17.92802106	      0.00000000	     -2.76558717	     -0.54952800	     -6.68392540	     11.13472734	      0.19433765	     21.32796878	     -7.35726824	      0.00000000	     -0.28050662	     -0.46911820	     -1.57961999	     -0.52092885	     -0.62392721	     -1.67834624	     -0.46084433	     -1.14061399	     -1.67834624	     -0.32059102	     -1.14061399	     -1.38216749	     -0.26047845	     -0.95662583	     -1.28344124	     -0.16028148	     -0.72666409	     -1.18471499	     -2.00363074	     -5.30675889	     -8.78537251	      0.00000000	      0.00000000	     11.57677926	     11.76656585	    -22.82491316	     -4.84540136	    -10.95683049	     12.83993530	     38.91293554	     61.78667729	    -13.38388750	     -3.26627004	      4.80331283	    -13.12373459	     89.17229807	      4.93659566	      3.41069351	    -13.07621802	    -17.00372546
      4.28333333	     -0.15421683	      2.02421324	     87.17120716	      0.16709889	      0.81439193	      0.74821134	      0.98347818	     -0.78461679	    -14.71219926	     16.59431816	      0.28962549	     30.66007825	     17.90419639	      0.00000000	     -2.93938289	     -0.60082495	     -6.57992441	     11.26333617	      0.19658230	     21.50533480	     -7.53274918	      0.00000000	     -0.29953967	     -0.46162044	     -1.61559166	     -0.55627512	     -0.61395519	     -1.71656614	     -0.49211373	     -1.12238395	     -1.71656614	     -0.34234389	     -1.12238395	     -1.41364270	     -0.27815254	     -0.94133641	     -1.31266822	     -0.17115697	     -0.71505007	     -1.21169374	     -2.13958192	     -5.22194278	     -8.98543613	      0.00000000	      0.00000000	     12.82873939	     11.75432794	    -21.48211705	     -4.78896469	    -10.83508321	     12.32216072	     38.65614289	     61.38646539	    -13.24047122	     -3.93515308	      4.59503027	    -13.13646182	     88.93217348	      4.52894482	      3.34364064	    -13.25122166	    -16.53221186
      4.30000000	     -0.03179516	      2.17193690	     87.25390509	      0.16616988	      0.81449583	      0.74816907	      0.99632230	     -0.70832766	    -14.49099534	     16.78374857	      0.29293167	     30.89813782	     17.86996645	      0.00000000	     -3.07850092	     -0.67739187	     -6.37372786	     11.34924462	      0.19808169	     21.76868584	     -7.49929676	      0.00000000	     -0.31225802	     -0.44216709	     -1.67811051	     -0.57989437	     -0.58808223	     -1.78299242	     -0.51300870	     -1.07508507	     -1.78299242	     -0.35687969	     -1.07508507	     -1.46834669	     -0.28996280	     -0.90166714	     -1.36346479	     -0.17842423	     -0.68491683	     -1.25858288	     -2.23042780	     -5.00188258	     -9.33314722	      0.00000000	      0.00000000	     13.57525681	     11.79787301	    -20.10720340	     -4.52599677	    -10.61834600	     11.62698053	     38.01270772	     60.34896628	    -12.51352952	     -4.91146629	      4.38151303	    -13.10741998	     88.76434917	      4.23616758	      3.39473419	    -13.40372362	    -15.92854875
      4.31666667	      0.09511626	      2.21642214	     87.26061155	      0.16514375	      0.81460706	      0.74828985	      1.08887379	     -0.62128012	    -14.18094795	     16.86513452	      0.29435213	     31.22648715	     18.00138572	      0.00000000	     -3.16552954	     -0.73155553	     -6.15671401	     11.28753240	      0.19700460	     22.08231091	     -7.39473097	      0.00000000	     -0.30690728	     -0.41730594	     -1.72028538	     -0.56995752	     -0.55501690	     -1.82780321	     -0.50421798	     -1.01463767	     -1.82780321	     -0.35076433	     -1.01463767	     -1.50524971	     -0.28499410	     -0.85097028	     -1.39773187	     -0.17536682	     -0.64640691	     -1.29021403	     -2.19220804	     -4.72064829	     -9.56771119	      0.00000000	      0.00000000	     13.77757850	     11.58666687	    -19.89961871	     -4.10508591	    -10.59024053	     11.25195740	     37.40581627	     59.94237701	    -12.47413125	     -5.03503448	      4.18856213	    -13.05430019	     88.73020994	      4.09832027	      3.37778431	    -13.44453671	    -15.80032789
      4.33333333	      0.38156377	      2.44062337	     87.52206070	      0.16311111	      0.81530535	      0.74872221	      0.96231747	     -0.40082775	    -14.09353667	     16.92185355	      0.29534206	     31.20740091	     17.84158663	      0.00000000	     -3.28089828	     -1.01125738	     -6.52983102	     11.48680150	      0.20048251	     22.55493506	     -6.15361169	      0.00000000	     -0.32317649	     -0.35935528	     -1.83609921	     -0.60017107	     -0.47794252	     -1.95085541	     -0.53094666	     -0.87373642	     -1.95085541	     -0.36935842	     -0.87373642	     -1.60658681	     -0.30010169	     -0.73279728	     -1.49183061	     -0.18466305	     -0.55664132	     -1.37707441	     -2.30841738	     -4.06509875	    -10.21183299	      0.00000000	      0.00000000	     13.21016019	     11.40435965	    -19.21671701	     -3.20653379	    -11.03462984	     13.96529521	     36.42103431	     41.68402628	     -8.53626077	     -7.96455549	      4.02166049	    -12.74831942	     88.25539236	      3.91480681	      3.20434507	    -13.18815092	    -15.67873227
